<?xml version="1.0" standalone="no"?><!DOCTYPE svg PUBLIC "-//W3C//DTD SVG 1.1//EN" "http://www.w3.org/Graphics/SVG/1.1/DTD/svg11.dtd"><svg t="1775095544362" class="icon" viewBox="0 0 1024 1024" version="1.1" xmlns="http://www.w3.org/2000/svg" p-id="10681" xmlns:xlink="http://www.w3.org/1999/xlink" width="200" height="200"><path d="M795.235 721.811l134.263-232.554h-94.924c-12.647-192.246-172.319-344.515-367.782-344.515-203.748 0-368.534 165.178-368.534 368.949 0 203.675 165.168 368.886 368.914 368.886 91.418 0 174.883-33.46 239.33-88.519l-49.33-63.553c-50.797 44.522-117.138 71.755-190 71.755-159.372 0-288.595-129.253-288.595-288.57 0-159.412 129.223-288.631 288.595-288.631 151.124 0 274.566 116.277 287.013 264.197h-93.211l134.261 232.555z" fill="" p-id="10682"></path></svg>