<?xml version="1.0" encoding="utf-8"?>
<!-- Generator: Adobe Illustrator 24.0.0, SVG Export Plug-In . SVG Version: 6.00 Build 0)  -->
<svg version="1.1" id="图层_1" xmlns="http://www.w3.org/2000/svg" xmlns:xlink="http://www.w3.org/1999/xlink" x="0px" y="0px"
	 viewBox="0 0 200 200" style="enable-background:new 0 0 200 200;" xml:space="preserve">
<style type="text/css">
	.st0{fill:#FFFFFF;}
</style>
<path d="M142.7,128l17.7-17.7l-26.5-26.5l29.5-29.5l-17.7-17.7l-29.5,29.5L89.7,39.6L72,57.3L142.7,128L142.7,128z M116.2,42.5
	L139.8,19c3.3-3.3,8.5-3.3,11.8,0L181,48.4c3.3,3.3,3.3,8.5,0,11.8l-23.6,23.6l20.6,20.6c3.3,3.3,3.3,8.5,0,11.8L113.3,181
	c-3.3,3.3-8.5,3.3-11.8,0L19,98.5c-3.3-3.3-3.3-8.5,0-11.8l64.8-64.8c3.3-3.3,8.5-3.3,11.8,0C95.6,21.9,116.2,42.5,116.2,42.5z"/>
<polygon class="st0" points="142.7,128 160.4,110.3 133.9,83.8 163.3,54.3 145.7,36.7 116.2,66.1 89.7,39.6 72,57.3 142.7,128 "/>
</svg>
