<?xml version="1.0" encoding="utf-8"?>
<!-- Generator: Adobe Illustrator 24.0.0, SVG Export Plug-In . SVG Version: 6.00 Build 0)  -->
<svg version="1.1" id="图层_1" xmlns="http://www.w3.org/2000/svg" xmlns:xlink="http://www.w3.org/1999/xlink" x="0px" y="0px"
	 viewBox="0 0 200 200" style="enable-background:new 0 0 200 200;" xml:space="preserve">
<style type="text/css">
	.st0{fill:#FFFFFF;}
</style>
<path d="M198.8,32.3c0-5-2.5-9.9-6.2-13.7L180.1,6.2c-7.5-7.5-19.9-7.5-27.3,0l-27.3,28.6l-13.7-13.7L84.5,48.4l11.2,11.2
	l-75.8,74.5c-5,5-7.5,11.2-8.7,18.6l-5,5c-9.9,9.9-9.9,24.8,0,34.8s24.8,9.9,34.8,0l5-5c7.5,0,13.7-3.7,18.6-8.7l75.8-75.8
	l11.2,11.2L178.9,87l-13.7-13.7L192.5,46C196.3,42.2,198.8,37.3,198.8,32.3L198.8,32.3z M52.2,166.5c-3.7,3.7-8.7,3.7-12.4,2.5
	l-11.2,11.2c-2.5,2.5-7.5,2.5-9.9,0s-2.5-7.5,0-9.9L29.8,159c-2.5-3.7,0-8.7,2.5-12.4l75.8-75.8L128,90.7L52.2,166.5L52.2,166.5z"/>
<path class="st0" d="M52.2,166.5c-3.7,3.7-8.7,3.7-12.4,2.5l-11.2,11.2c-2.5,2.5-7.5,2.5-9.9,0s-2.5-7.5,0-9.9L29.8,159
	c-2.5-3.7,0-8.7,2.5-12.4l75.8-75.8L128,90.7L52.2,166.5L52.2,166.5z"/>
</svg>
