<svg id="图层_1" data-name="图层 1" xmlns="http://www.w3.org/2000/svg" viewBox="0 0 200 200"><defs><style>.cls-1{fill:#4e80c2;}</style></defs><title>插件icon-02</title><path class="cls-1" d="M93.57,175.68,35.1,143.43A13,13,0,0,1,28.33,132V68A13,13,0,0,1,35.1,56.57L93.57,24.32a13.35,13.35,0,0,1,12.86,0L164.9,56.57A13,13,0,0,1,171.67,68v64a13,13,0,0,1-6.77,11.41l-58.47,32.25a13.35,13.35,0,0,1-12.86,0Zm5.51-9.9a1.94,1.94,0,0,0,1.84,0l58.47-32.19a1.86,1.86,0,0,0,1-1.63V68a1.86,1.86,0,0,0-1-1.63L100.92,34.22a1.94,1.94,0,0,0-1.84,0L40.61,66.41a1.85,1.85,0,0,0-1,1.63V132a1.85,1.85,0,0,0,1,1.63l58.47,32.19ZM70.55,99.51a30.18,30.18,0,1,1,30.18,30.18A30.18,30.18,0,0,1,70.55,99.51Zm11.32,0a18.86,18.86,0,1,0,18.86-18.86A18.86,18.86,0,0,0,81.87,99.51Z"/></svg>