<svg id="图层_1" data-name="图层 1" xmlns="http://www.w3.org/2000/svg" viewBox="0 0 200 200"><defs><style>.cls-1{fill:#4e80c2;}</style></defs><title>插件icon-02</title><path class="cls-1" d="M177.33,77.92V44.76a22.09,22.09,0,0,0-22.09-22.09H44.76A22.09,22.09,0,0,0,22.67,44.76V155.24a22.09,22.09,0,0,0,22.09,22.09H155.24a22.09,22.09,0,0,0,22.09-22.09ZM37,37a11,11,0,0,1,7.83-3.24H155.27a11,11,0,0,1,11,11V66.88H33.71V44.78A11,11,0,0,1,37,37Zm46.46,79.64V77.92h33.18v38.67Zm33.18,11v38.66H83.41V127.63Zm-44.22-11H33.71V77.92H72.37ZM37,163.07a10.93,10.93,0,0,1-3.24-7.8V127.63H72.37v38.66H44.78A10.94,10.94,0,0,1,37,163.07Zm129.34-7.8a11,11,0,0,1-11,11H127.63V127.63h38.66v27.64Zm0-38.68H127.63V77.92h38.66v38.67Z"/></svg>